<svg xmlns="http://www.w3.org/2000/svg" width="688" height="385.935" viewBox="0 0 688 385.935"><defs><style>.a{opacity:0.4;}.b{fill:#f99746;}.c{fill:#505aba;}.d{fill:#fff;}.e{fill:#8c9df4;}.f{fill:#223462;}.g{fill:#0f1d3d;}.h{fill:#dde7fe;}.i{fill:#006289;}.j{fill:#df680c;}.k{fill:#f2a227;}.l{fill:#b0f0f7;}.m{fill:#307f91;}.n{fill:#6cb5c1;}.o{fill:#23282d;}.p{fill:#2d2923;}.q{fill:#ffb27d;}.r{fill:#52c6c3;}.s{fill:#ed985f;}.t{fill:#233862;}.u{fill:#ed975d;}.v{fill:#ebf3fa;}.w{fill:#bdd1f9;}.x{fill:#ed7d2b;}.y{fill:#fca56b;}.z{fill:#1f4d84;}.aa{fill:#739af0;}.ab{opacity:0.5;}.ac{fill:#b3cff9;}</style></defs><g transform="translate(-41.417 -12.522)"><g class="a" transform="translate(118.655 77.924)"><g transform="translate(136.175 0)"><g transform="translate(0)"><path class="b" d="M1.359,0h12.61a1.358,1.358,0,0,1,1.358,1.358v0a1.358,1.358,0,0,1-1.358,1.358H1.359A1.359,1.359,0,0,1,0,1.359v0A1.359,1.359,0,0,1,1.359,0Z" transform="translate(15.327 2.718) rotate(180)"></path></g></g><g transform="translate(0 175.061)"><g transform="translate(0.872 39.672)"><path class="c" d="M204.037,470.9a8.23,8.23,0,1,0-8.23,8.231A8.231,8.231,0,0,0,204.037,470.9Z" transform="translate(-187.576 -462.669)"></path></g><g transform="translate(0 38.849)"><path class="d" d="M195.278,479.55a9.1,9.1,0,1,1,9.1-9.1A9.112,9.112,0,0,1,195.278,479.55Zm0-16.462a7.36,7.36,0,1,0,7.358,7.359A7.368,7.368,0,0,0,195.278,463.089Z" transform="translate(-186.175 -461.346)"></path></g><g transform="translate(3.932)"><g transform="translate(7.793 3.942)"><path class="c" d="M205.016,405.934V419.9a.679.679,0,0,0,.679.68h0a.68.68,0,0,0,.68-.68V405.934a.679.679,0,0,0-.68-.679h0A.679.679,0,0,0,205.016,405.934Z" transform="translate(-205.016 -405.255)"></path></g><g transform="translate(0 3.942)"><path class="c" d="M192.493,405.934V419.9a.679.679,0,0,0,.679.68h0a.679.679,0,0,0,.68-.68V405.934a.679.679,0,0,0-.68-.679h0A.679.679,0,0,0,192.493,405.934Z" transform="translate(-192.493 -405.255)"></path></g><g transform="translate(4.055)"><path class="c" d="M199.009,399.6v17.91a.68.68,0,0,0,.68.68h0a.679.679,0,0,0,.679-.68V399.6a.679.679,0,0,0-.679-.68h0A.68.68,0,0,0,199.009,399.6Z" transform="translate(-199.009 -398.92)"></path></g></g></g><g transform="translate(126.494 128.402)"><g transform="translate(0)"><path class="e" d="M13.756,0h7.6A13.757,13.757,0,0,1,35.117,13.757v93.055a13.755,13.755,0,0,1-13.755,13.755H13.756A13.756,13.756,0,0,1,0,106.811V13.756A13.756,13.756,0,0,1,13.756,0Z" transform="translate(35.117 120.567) rotate(180)"></path></g></g></g><g transform="translate(607.116 271.159)"><g transform="translate(48.104)"><rect class="f" width="19.947" height="64.35" transform="translate(19.947 64.35) rotate(180)"></rect></g><g transform="translate(0)"><rect class="g" width="48.104" height="64.35" transform="translate(48.104 64.35) rotate(180)"></rect></g><g transform="translate(54.748 4.708)"><path class="h" d="M1065.714,439.018a3.329,3.329,0,1,0-3.329,3.329A3.33,3.33,0,0,0,1065.714,439.018Z" transform="translate(-1059.055 -435.689)"></path></g><g transform="translate(55.723 5.683)"><path class="i" d="M1065.33,439.611a2.354,2.354,0,1,0-2.354,2.354A2.354,2.354,0,0,0,1065.33,439.611Z" transform="translate(-1060.622 -437.257)"></path></g><g transform="translate(53.313 16.058)"><rect class="i" width="9.382" height="16.949" transform="translate(9.382 16.949) rotate(180)"></rect></g></g><g transform="translate(569.904 271.159)"><g transform="translate(48.104)"><rect class="f" width="19.947" height="64.35" transform="translate(19.947 64.35) rotate(180)"></rect></g><g transform="translate(0)"><rect class="g" width="48.104" height="64.35" transform="translate(48.104 64.35) rotate(180)"></rect></g><g transform="translate(54.748 4.708)"><path class="h" d="M1005.918,439.018a3.329,3.329,0,1,0-3.329,3.329A3.33,3.33,0,0,0,1005.918,439.018Z" transform="translate(-999.259 -435.689)"></path></g><g transform="translate(55.724 5.683)"><path class="i" d="M1005.535,439.611a2.354,2.354,0,1,0-2.354,2.354A2.354,2.354,0,0,0,1005.535,439.611Z" transform="translate(-1000.827 -437.257)"></path></g><g transform="translate(53.313 16.058)"><rect class="i" width="9.382" height="16.949" transform="translate(9.382 16.949) rotate(180)"></rect></g></g><g transform="translate(535.879 271.159)"><g transform="translate(48.104)"><rect class="f" width="19.947" height="64.35" transform="translate(19.947 64.35) rotate(180)"></rect></g><g transform="translate(0)"><rect class="g" width="48.104" height="64.35" transform="translate(48.104 64.35) rotate(180)"></rect></g><g transform="translate(54.748 4.708)"><path class="h" d="M951.243,439.018a3.329,3.329,0,1,0-3.329,3.329A3.33,3.33,0,0,0,951.243,439.018Z" transform="translate(-944.584 -435.689)"></path></g><g transform="translate(55.723 5.683)"><path class="i" d="M950.859,439.611a2.354,2.354,0,1,0-2.354,2.354A2.354,2.354,0,0,0,950.859,439.611Z" transform="translate(-946.151 -437.257)"></path></g><g transform="translate(53.313 16.058)"><rect class="i" width="9.382" height="16.949" transform="translate(9.382 16.949) rotate(180)"></rect></g></g><g transform="translate(532.882 313.065)"><g transform="translate(0)"><rect class="j" width="112.7" height="83.267" transform="translate(112.7 83.267) rotate(180)"></rect></g><g transform="translate(60.395)"><rect class="k" width="89.356" height="83.267" transform="translate(89.356 83.267) rotate(180)"></rect></g><g transform="translate(95.989 8.045)"><rect class="g" width="28.357" height="5.549" rx="2.774" transform="translate(28.357 5.549) rotate(180)"></rect></g></g><g transform="translate(197.623 105.548)"><g transform="translate(150.13 96.976)"><path class="l" d="M569.679,319.549,554.437,500.766s-1.6,10.985,6.574,11c13.435.032,66.869,0,66.869,0s-10.111-2.286-9.989-7.432c.144-6.064,17.813-186.505,17.813-186.505Z" transform="translate(-554.311 -317.834)"></path></g><g transform="translate(154.522 93.609)"><path class="m" d="M635.577,506.434c-2.642.008-54.374.1-67.457-.072-5.7-.071-6.7-5.07-6.748-8.305a16.2,16.2,0,0,1,.173-2.7l.4-4.71,1.01-12,.892-10.606,1.147-13.629.965-11.5,10.829-128.767,66.028-1.714S635.37,387.937,630.106,442.9c-.588,6.124-1.147,12-1.663,17.478q-.252,2.626-.486,5.127c-.488,5.2-.934,9.976-1.323,14.193-.2,2.223-.393,4.288-.564,6.18-.672,7.413-1.065,12.146-1.07,13.047a7.577,7.577,0,0,0,.128,1.467C626.212,506.172,634.585,506.434,635.577,506.434Z" transform="translate(-561.369 -312.424)"></path></g><g transform="translate(5.146 0)"><path class="m" d="M321.337,162l37.124,149.12,5.083,20.422L380.834,401H702.066l-63.73-239Z" transform="translate(-321.337 -162.005)"></path></g><path class="l" d="M318.214,162l-5.145,1.715,57.8,242.471,6.84-5.187Z" transform="translate(-313.069 -162.004)"></path><g transform="translate(57.803 238.999)"><path class="i" d="M405.952,551.237H725.206l8.816-5.187H412.793Z" transform="translate(-405.952 -546.05)"></path></g><g transform="translate(169.916 287.619)"><rect class="l" width="69.123" height="3.285" transform="translate(69.123 3.285) rotate(180)"></rect></g><g transform="translate(156.103 244.185)"><path class="i" d="M629.274,554.383l-.357,2.511L563.91,570.027l.892-10.606.425-5.038Z" transform="translate(-563.91 -554.383)"></path></g><g transform="translate(154.524 267.068)"><path class="n" d="M635.578,611.705c-2.642.008-54.374.1-67.457-.072-5.7-.071-6.7-5.07-6.748-8.306l64.7-12.172C625.4,598.568,625.007,603.3,625,604.2a7.591,7.591,0,0,0,.128,1.467C626.213,611.444,634.587,611.705,635.578,611.705Z" transform="translate(-561.372 -591.155)"></path></g><g transform="translate(5.145)"><path class="i" d="M321.336,162h317l51.434,192.079H369.154Z" transform="translate(-321.336 -162.004)"></path></g><g transform="translate(18.274 10.29)"><path class="o" d="M682.785,352H385.978l-10.607-42.252-4.1-16.348-1.673-6.667-10.9-43.422-.563-2.261L352.366,218.1l-2.578-10.27-2.2-8.761-1.795-7.144-3.362-13.389H634.964l3.692,13.389,1.969,7.144,2.415,8.761,2.83,10.27,18.653,67.656v0L666.1,291.5l.736,2.66,12.876,46.708Z" transform="translate(-342.433 -178.54)"></path></g></g><g transform="translate(73.175 200.299)"><g transform="translate(81.683)"><path class="p" d="M274.562,322.7s.773-8.437-8.653-8.437a11.064,11.064,0,0,1,4.334,2.324s-6.012-3.53-12.555,1.894-2.477,19.026-4.468,21.609-9.737,3.1-8.791,11.45,24.591,18.81,23.073,25.719c0,0,9.265-13.62,2.64-19.836,0,0,3.229,3.042,3.558,6.658,0,0,.876-7.06-3.616-9.317-3.975-2-7.232-9.306-6.888-10.612S274.562,322.7,274.562,322.7Z" transform="translate(-244.35 -314.26)"></path></g><g transform="translate(92.628 48.944)"><path class="q" d="M271.924,392.908s7.042,29.134,13.956,34.959c4.155,3.5,16.51,11.534,16.51,11.534l-5.138,1.865s-17.137-5.787-20.973-10.3-14.341-27.113-14.341-27.113Z" transform="translate(-261.936 -392.908)"></path></g><g transform="translate(100.313 94.716)"><path class="j" d="M317.25,477.829l-1.655-4.1a11.625,11.625,0,0,0-10.779-7.272h-30.53V568.536H400.577v-82.7H329.111A12.793,12.793,0,0,1,317.25,477.829Z" transform="translate(-274.286 -466.459)"></path></g><g transform="translate(32.037 72.588)"><path class="i" d="M168.964,458.442c.062.111.128.227.194.342,1.541,2.678,5.076,9.242,8.97,16.424,1.842,3.407,3.771,6.956,5.6,10.293,3.152,5.76,6.02,10.89,7.693,13.6,1.7,2.757,2.954,4.693,3.461,5.468l0,0a1.286,1.286,0,0,1,.165.8,41.781,41.781,0,0,0,.111,7.223,55.413,55.413,0,0,0,18.105,35.889l4.685.692s-6.63-24.562-8.583-38.448a26.694,26.694,0,0,1-.358-5.505c.346-3.618-.3-8.929-1.512-15.027-2.163-10.837-6.131-24.137-9.58-34.785-.218-.68-6.807-24.513-6.807-24.513-5.53,4.834-25.7,6.828-25.7,6.828S161.992,446.044,168.964,458.442Z" transform="translate(-164.573 -430.901)"></path></g><g transform="translate(75.588 185.913)"><path class="f" d="M254.215,623.883H234.663a10.735,10.735,0,0,1,.552-5.241c.979-2.169,2.374-2.239.179-5.639,1.242,1.279,5.236,1.808,8.063,1.428.347.562,2.234,4.329,3.39,5.16C248.124,620.509,253.822,620.182,254.215,623.883Z" transform="translate(-234.555 -613.003)"></path></g><g transform="translate(36.427 88.6)"><path class="f" d="M171.628,468.16c.062.111.128.227.194.342,1.541,2.678,9.876,18.072,13.769,25.254-4.512-18.562-1.374-37.126-1.374-37.126Z" transform="translate(-171.628 -456.63)"></path></g><g transform="translate(93.981 7.113)"><path class="p" d="M279.358,325.827c.128-.513-11.168,5.106-11.741,5.741-5.3,5.876-3.786,13.544-.755,13.618,1.944.048,1.567,3.28,1.567,3.28l21.658-9.162S287.479,324.1,279.358,325.827Z" transform="translate(-264.111 -325.69)"></path></g><g transform="translate(90.554 44.569)"><path class="r" d="M270,385.878s3.3,6.584,2.884,11.927c0,0-3.974,6.273-14.281,7.861C258.6,405.666,267.466,385.873,270,385.878Z" transform="translate(-258.604 -385.878)"></path></g><g transform="translate(2.592 68.507)"><path class="i" d="M166.337,436.708l.067-3.657c-7.286.919-25.123-8.707-25.123-8.707s-7.622,5.07-8.666,19.549c-.51,7.067-3.732,36.954-4.088,45.879-.13,3.234-.173,5.543-.188,6.465a.017.017,0,0,1,0,.009,1.274,1.274,0,0,1-.31.753,41.693,41.693,0,0,0-3.948,6.051c-11.118,20.686-5.3,48.794-5.3,48.794l2.582-.656s9.4-29.138,15.545-41.742a26.356,26.356,0,0,1,2.782-4.763c2.31-2.806,4.746-7.571,7.147-13.306C151.373,480.535,166.337,436.708,166.337,436.708Z" transform="translate(-117.258 -424.344)"></path></g><g transform="translate(0 185.772)"><path class="f" d="M132.753,623.8H113.2a10.73,10.73,0,0,1,.553-5.241c.978-2.169,2.511-3.155,2.145-5.78a7.042,7.042,0,0,0,6.094,2.331c.347.562,2.236,3.566,3.393,4.4C126.662,620.423,132.36,620.1,132.753,623.8Z" transform="translate(-113.093 -612.776)"></path></g><g transform="translate(25.837 33.488)"><path class="r" d="M218.007,403.139c-2.626.449.429,2.536-3.183,2.929-5.141.561-10.45.945-13.23,2.054a2.984,2.984,0,0,0-1.9,1.543c-1.205,3.624-8.839,9.853-8.839,9.853-34.047-1.55-36.24-16.725-36.24-16.725,22.1-21.461,40.9-33.159,56.433-34.606,3.781-.352,8.877.121,11.27,1.186,5.433,2.419,8.412,9.781,8.412,9.781S227.987,401.437,218.007,403.139Z" transform="translate(-154.61 -368.071)"></path></g><g transform="translate(72.71 43.786)"><path class="r" d="M243.272,412.318c-5.141.561-10.45.945-13.231,2.054a54.22,54.22,0,0,1,6.877-29.753S242.145,405.892,243.272,412.318Z" transform="translate(-229.931 -384.619)"></path></g><g transform="translate(74.779 40.896)"><path class="q" d="M248.963,379.991s-12.93-.706-15.227,7.411,4.31,40.519,5.734,43.863c2.593,6.088,15.664,24.221,15.664,24.221l4.19-2.17s-8.415-26.546-10.294-29.172C246.082,420.019,252.833,383.522,248.963,379.991Z" transform="translate(-233.256 -379.975)"></path></g><g transform="translate(96.095 113.671)"><path class="q" d="M272.261,497.483a19.117,19.117,0,0,1,1.951,2c.87,1.062.1,1.446,2.6,6.258,0,0-.128.668-.67.546s-2.427-1.988-3.394-1.854c0,0-.691.569-.766,2.455-.072,1.764-.077,5.666-.383,6.4s-2.551-3.074-3.655-5.824c-.969-2.411-.025-10.548-.025-10.548Z" transform="translate(-267.508 -496.918)"></path></g><g transform="translate(72.71 38.498)"><path class="r" d="M229.931,396.8c.034.19,12.235,2.245,19.867-1.629,0,0,6.375-19.973-2.736-19.017s-14.506,3.825-14.735,8.187S229.931,396.8,229.931,396.8Z" transform="translate(-229.931 -376.123)"></path></g><g transform="translate(93.234 28.393)"><path class="q" d="M262.924,367.678a8.119,8.119,0,0,0,2.454,5.687c1.621,1.669,3.963,2.972,5.608,1.327a17.865,17.865,0,0,0,2.544-3.074c1.422-2.443,3.115-4.94,3.115-4.94l-7.318-6.412-.437-.383a18.641,18.641,0,0,1-5.451,6.186A1.7,1.7,0,0,0,262.924,367.678Z" transform="translate(-262.91 -359.884)"></path></g><g transform="translate(99.517 28.775)"><path class="s" d="M280.458,366.913s-1.692,2.492-3.114,4.938c-4.548-2.8-4.553-8.435-4.2-11.352Z" transform="translate(-273.006 -360.499)"></path></g><g transform="translate(99.214 15.699)"><path class="q" d="M280.477,362.189s-11.044-6.145-7.111-12.964,5.157-12.2,12.374-8.569,7.075,7.02,6.315,9.615S283.451,363.612,280.477,362.189Z" transform="translate(-272.519 -339.486)"></path></g><g transform="translate(98.053 14.775)"><path class="p" d="M293.216,345.735c-.505-3.028-2.043-3.316-3.116-3.115a8.833,8.833,0,0,0-10.742-4.112,15.034,15.034,0,0,1-8.7,5.228s1.281,2.385,6.562,3.861a9.031,9.031,0,0,0,5.209-.416,29.475,29.475,0,0,1-7.494,2.825c6.958.637,13.579-5.725,14.265-6.406a9.9,9.9,0,0,1,.547,4.559c-.458,2.051-2.278,5.765-1.167,6.246C288.576,354.4,293.975,350.275,293.216,345.735Z" transform="translate(-270.654 -338.002)"></path></g><g transform="translate(133.476 95.243)"><path class="q" d="M329.2,467.514s-3.082,2.311-.759,3.822,6.469,1.919,6.486.928C334.985,468.937,333.325,466.57,329.2,467.514Z" transform="translate(-327.575 -467.305)"></path></g></g><g transform="translate(41.417 396.475)"><path class="t" d="M10.408,631.476a.994.994,0,0,1-.991-.991h0a.994.994,0,0,1,.991-.992H696.426a.994.994,0,0,1,.991.992h0a.994.994,0,0,1-.991.991" transform="translate(-9.417 -629.493)"></path></g><g transform="translate(236.634 155.69)"><path class="j" d="M421.195,253.792l-2.738-4.042c-2.936-4.334-7.918-7.172-12.592-7.172h-30.11l5.225,19.106L401.713,337.5a7.817,7.817,0,0,0,7.54,5.755H517.6a7.816,7.816,0,0,0,7.539-9.878l-19.6-71.69H435.052C429.908,261.684,424.425,258.561,421.195,253.792Z" transform="translate(-375.755 -242.578)"></path></g><g transform="translate(241.847 12.522)"><g transform="translate(42.92 116.615)"><path class="q" d="M453.531,214.934a1.675,1.675,0,0,0-.3,1.791.014.014,0,0,0,0,.009c.432,1.195,1.859,2.529,3.517,3.861.212.171.4.327.564.471.043.037.087.075.127.113s.065.06.1.088c1.545,1.426.963,1.752,3.741,4.646,3.167,3.3,5.348,3.357,5.968,3.057.525-.256-.541-2-1.722-3.97-.057-.095-.113-.19-.172-.286-.157-.261-.314-.526-.47-.789-1.384-2.365-1.028-3.474-.7-6.994.268-2.859,4.454-15.974,4.454-15.974l-6.07-1.048s-1.831,10.443-3.847,12.051c-1.077.857-2.283.867-3.318,1.5-.073.044-.145.089-.215.136A7.978,7.978,0,0,0,453.531,214.934Z" transform="translate(-453.099 -199.91)"></path></g><g transform="translate(42.92 130.305)"><path class="f" d="M453.531,223.242a1.675,1.675,0,0,0-.3,1.791.015.015,0,0,0,0,.009,12.9,12.9,0,0,0,3.523,3.849c.209.174.394.333.558.483.043.037.087.075.127.113s.065.06.1.088c1.545,1.426.963,1.752,3.741,4.646,3.167,3.3,5.348,3.357,5.968,3.057.525-.256-.541-2-1.722-3.97a13.491,13.491,0,0,1-5.645-4.163c-1.837-2.346-3.084-5.336-4.334-7.172l-.357-.067A7.979,7.979,0,0,0,453.531,223.242Z" transform="translate(-453.099 -221.908)"></path></g><g transform="translate(87.45 114.782)"><path class="q" d="M529.506,210.047c.375,1.874,3.046,1.562,6.03.834s2.275.139,6.522-.33,5.534-2.052,5.664-2.683c.116-.56-1.982-.759-4.233-1.019-.283-.032-.568-.067-.852-.1-2.541-.32-4.4-1.961-6.71-3.308-2.186-1.276-5.447-6.475-5.447-6.475l-5.825.459s3.055,4.643,4.237,6.662a7.043,7.043,0,0,1,.571,3.97A7.472,7.472,0,0,0,529.506,210.047Z" transform="translate(-524.655 -196.964)"></path></g><g transform="translate(92.212 124.666)"><path class="f" d="M538.427,216.88c2.984-.728,2.275.139,6.522-.33s5.534-2.052,5.664-2.683c.116-.56-1.982-.759-4.233-1.019l-.021.043a11.972,11.972,0,0,1-6.083,1.889c-2.882.069-5.933-.757-7.923-.726a7.47,7.47,0,0,0,.044,1.992C532.771,217.92,535.442,217.608,538.427,216.88Z" transform="translate(-532.308 -212.848)"></path></g><g transform="translate(50.001 81.275)"><path class="j" d="M484.471,152.462l-5.45,14.649-7.115,19.128a11.515,11.515,0,0,1-3.776-.347,16.37,16.37,0,0,1-3.652-1.779s1.981-20.54,5.667-32.329a21,21,0,0,1,3.171-6.852C479.026,138.188,484.471,152.462,484.471,152.462Z" transform="translate(-464.478 -143.122)"></path></g><g transform="translate(11.795 64.402)"><path class="k" d="M455.756,118.951c-3.1-1-11.186-.019-19.958,1.565a5.948,5.948,0,0,1-6.142-2.776h0l-22.074-1.731s-7.29,16.151-3.306,26.445a3.873,3.873,0,0,0,3.858,2.49h0s13.338.023,17.6.025c10.978,0,23.236-7.539,24.822-7.856,2.6-.518,3.631,4.672,6.224,10.123s24.384,24.141,24.384,24.141a19.166,19.166,0,0,0,4.735-.484,4.662,4.662,0,0,0,2.033-1.282S463.8,121.549,455.756,118.951Z" transform="translate(-403.085 -116.009)"></path></g><g transform="translate(0.089)"><path class="p" d="M420.229,13.833a7.829,7.829,0,0,0-4.216-1.1,11.72,11.72,0,0,1-2.036-.124c-8.425-1.238-13.5,11-13.8,14.695-.548,6.788-4.14,7.822-9.2,12.072-10.138,8.521-7.17,18.428-1.629,22.111,3.324,2.209,9.187,0,9.187,0,.083.058,16.033-8.909,23.895-13.234C434.217,46.584,424.962,16.652,420.229,13.833Z" transform="translate(-384.275 -12.522)"></path></g><g transform="translate(20.906 19.684)"><path class="q" d="M428.479,56.515c.034.022-3.868,1.354-6.477.2-2.454-1.085-4.313-5.125-4.276-5.127,1.116-.051,2.343-1.027,3.289-7.432l.475.171,7.994,2.879s-.58,2.565-.955,5.007C428.212,54.261,428.042,56.225,428.479,56.515Z" transform="translate(-417.725 -44.153)"></path></g><g transform="translate(24.671 19.855)"><path class="u" d="M431.769,47.306s-.319,1.384-.785,3.969a9.027,9.027,0,0,1-7.208-6.849Z" transform="translate(-423.775 -44.427)"></path></g><g transform="translate(23.871 6.04)"><path class="q" d="M432.473,41.468S421.535,40,422.557,33.2s.3-11.565,7.324-10.912,7.991,3.45,8.2,5.8S435.345,41.676,432.473,41.468Z" transform="translate(-422.49 -22.227)"></path></g><g transform="translate(20.734 5.439)"><path class="p" d="M435.781,24s-7,6.032-11.767,6.517-6.565-1.045-6.565-1.045a18.6,18.6,0,0,0,4.5-6.091,3.349,3.349,0,0,1,2.761-1.973C428.111,21.113,434.557,20.981,435.781,24Z" transform="translate(-417.449 -21.262)"></path></g><g transform="translate(34.69 6.324)"><path class="p" d="M439.875,23.992a17.254,17.254,0,0,1,3.079,3.946,13.239,13.239,0,0,1,.356,7.038s3.652-7.1,1.587-10.544C442.706,20.776,439.875,23.992,439.875,23.992Z" transform="translate(-439.875 -22.685)"></path></g><g transform="translate(11.512 26.859)"><path class="i" d="M431.982,76.986c-.339,22.141-.1,17.515-2.519,19.615-.584.506-2.225.807-4.384.948-6.789.449-18.724-.674-19.177-1.929-1.565-4.342-.459-5.69-1.762-12.337-.136-.708-.3-1.472-.5-2.306-1.088-4.566-2.148-6.119,1.72-13.452,3.507-6.642,7.15-12.033,7.477-11.838,9.245,5.493,9.993.879,9.993.879S432.149,66.186,431.982,76.986Z" transform="translate(-402.63 -55.682)"></path></g><g transform="translate(50.001 89.937)"><path class="k" d="M479.021,172.368,471.906,191.5a11.516,11.516,0,0,1-3.776-.347,16.369,16.369,0,0,1-3.652-1.779s1.981-20.54,5.667-32.329Z" transform="translate(-464.478 -157.041)"></path></g><g transform="translate(31.709 27.742)"><path class="i" d="M435.085,57.1s9.514,1.617,10.63,5.714S450.5,91.778,450.5,91.778s-2.683,2.619-4.917.384-7.025-23.268-7.025-23.268Z" transform="translate(-435.085 -57.1)"></path></g><g transform="translate(13.021 45.239)"><path class="f" d="M425.995,108.7c-6.789.449-18.724-.674-19.177-1.929-1.565-4.342-.459-5.69-1.762-12.337l3.278-9.221s-.545,10.268,2.482,12.97,12.4,5.218,13.868,7.475A8.276,8.276,0,0,1,425.995,108.7Z" transform="translate(-405.055 -85.217)"></path></g><g transform="translate(26.183 63.371)"><path class="q" d="M426.2,115.386s6.7-1.489,7.78-.894,3.721,2.761,4.051,3.514-2.405-.573-3.3-.812a7.936,7.936,0,0,0-2.846.622,9.455,9.455,0,0,1-5.1.51Z" transform="translate(-426.205 -114.352)"></path></g><g transform="translate(0 26.86)"><path class="i" d="M405.842,55.683s-8.994.551-12.109,4.892c-4.385,6.111-13.088,32.16-8.106,35.636,5.61,3.914,25.539,1.032,25.539,1.032s.664-3.1-.258-4.6-15.915-3.926-16.607-4.619,8.655-13.491,8.656-15.567S405.842,55.683,405.842,55.683Z" transform="translate(-384.132 -55.683)"></path></g><g transform="translate(34.286 65.376)"><path class="q" d="M439.226,117.574a12.942,12.942,0,0,0,1.863,2.026,1.375,1.375,0,0,0,.757.163l-.945-1.7Z" transform="translate(-439.226 -117.574)"></path></g><g transform="translate(33.962 63.511)"><path class="q" d="M438.706,114.577l4.079,1.983a.726.726,0,0,1-.676.261,9.718,9.718,0,0,1-1.769-.487Z" transform="translate(-438.706 -114.577)"></path></g><g transform="translate(26.181 68.166)"><path class="f" d="M468.826,122.073l-42.622-.015V123l42.244.015Z" transform="translate(-426.203 -122.058)"></path></g><g transform="translate(36.148 44.969)"><path class="f" d="M442.219,108.924l32.277.011,9.718-24.142-32.228-.011Z" transform="translate(-442.219 -84.782)"></path></g><g transform="translate(57.146 55.509)"><path class="d" d="M479.1,103.256a1.119,1.119,0,0,0-1.1-1.537,2.2,2.2,0,0,0-1.978,1.537,1.118,1.118,0,0,0,1.1,1.537A2.2,2.2,0,0,0,479.1,103.256Z" transform="translate(-475.959 -101.719)"></path></g></g><g transform="translate(396.417 141.841)"><path class="i" d="M697.431,239.94l-8.927-11.4-.422-.537-.5-.093-41.2-7.581L632.509,295.69l53.417,9.828,11.861-64.471.1-.527Z" transform="translate(-632.509 -220.324)"></path></g><g transform="translate(379.857 128.003)"><path class="r" d="M660.579,208.159l.02.536,2.542,65.5L608.869,276.3,605.9,199.73l41.864-1.623.51-.02.529.433,11.208,9.173Z" transform="translate(-605.898 -198.087)"></path></g><g transform="translate(307.952 151.655)"><g transform="translate(0 5.176)"><path class="t" d="M581.24,244.412l-90.572,5.048a.332.332,0,0,0-.313.35l6.61,118.6a.332.332,0,0,0,.35.313l90.442-5.041a.331.331,0,0,0,.312-.35L581.453,244.6A.2.2,0,0,0,581.24,244.412Z" transform="translate(-490.355 -244.411)"></path></g><g transform="translate(3.022 8.117)"><path class="v" d="M582.907,361.723l-76.717,4.814a4.174,4.174,0,0,1-4.428-3.905L495.22,258.389a4.175,4.175,0,0,1,3.906-4.428l76.718-4.814a4.175,4.175,0,0,1,4.428,3.906l6.541,104.243A4.175,4.175,0,0,1,582.907,361.723Z" transform="translate(-495.212 -249.138)"></path></g><g transform="translate(12.058 24.025)"><path class="w" d="M558.114,275.995l-48.261,3.028a.045.045,0,0,1-.047-.042l-.075-1.205a.044.044,0,0,1,.041-.048l48.261-3.028a.044.044,0,0,1,.047.042l.075,1.205A.045.045,0,0,1,558.114,275.995Z" transform="translate(-509.731 -274.7)"></path><g transform="translate(0.65 10.362)"><path class="w" d="M559.159,292.645,510.9,295.673a.044.044,0,0,1-.047-.042l-.076-1.206a.045.045,0,0,1,.042-.047l48.261-3.028a.045.045,0,0,1,.047.042l.076,1.206A.044.044,0,0,1,559.159,292.645Z" transform="translate(-510.775 -291.35)"></path></g><g transform="translate(0.325 4.024)"><path class="w" d="M577.075,282.461l-66.7,4.185a.045.045,0,0,1-.047-.042l-.075-1.206a.045.045,0,0,1,.042-.047l66.7-4.185a.045.045,0,0,1,.047.042l.076,1.206A.045.045,0,0,1,577.075,282.461Z" transform="translate(-510.253 -281.166)"></path></g><g transform="translate(4.422 43.304)"><path class="w" d="M549.748,345.58l-32.761,2.056-.079-.07-.072-1.147.069-.078,32.761-2.056.08.07.072,1.147Z" transform="translate(-516.836 -344.284)"></path></g><g transform="translate(4.097 37.336)"><path class="w" d="M561.775,335.989l-45.31,2.843-.08-.07-.072-1.146.07-.079,45.31-2.843.079.07.072,1.146Z" transform="translate(-516.314 -334.694)"></path></g><g transform="translate(4.557 48.114)"><path class="w" d="M565.437,353.309l-48.261,3.029a.046.046,0,0,1-.047-.042l-.075-1.206a.044.044,0,0,1,.042-.047l48.261-3.029a.045.045,0,0,1,.047.042l.076,1.206A.045.045,0,0,1,565.437,353.309Z" transform="translate(-517.054 -352.014)"></path></g><g transform="translate(4.885 52.959)"><path class="w" d="M571.318,361.095l-53.581,3.362-.086-.076-.071-1.133.076-.086,53.581-3.362.086.075.071,1.134Z" transform="translate(-517.58 -359.799)"></path></g><g transform="translate(5.75 63.238)"><path class="w" d="M553.583,377.611l-34.46,2.163-.082-.072-.072-1.142.072-.082,34.461-2.163.081.071.072,1.143Z" transform="translate(-518.97 -376.316)"></path></g><g transform="translate(6.4 73.599)"><path class="w" d="M554.628,394.261l-34.461,2.163-.081-.071-.072-1.144.071-.08,34.461-2.163.081.071.072,1.143Z" transform="translate(-520.015 -392.966)"></path></g><g transform="translate(6.075 67.59)"><path class="w" d="M567.306,384.606l-47.66,2.99-.081-.072-.072-1.143.072-.081,47.661-2.991.08.071.071,1.144Z" transform="translate(-519.493 -383.31)"></path></g></g><g transform="translate(19.185)"><path class="k" d="M568.208,236.1l-42.237,2.354a4.88,4.88,0,0,0-4.781,4.964l.355,6.382a1.128,1.128,0,0,0,1.226,1.018l49.99-2.786a1.129,1.129,0,0,0,1.105-1.148l-.356-6.383A4.881,4.881,0,0,0,568.208,236.1Z" transform="translate(-521.183 -236.094)"></path></g></g><g transform="translate(347.155 143.198)"><g transform="translate(97.018 53.676)"><path class="q" d="M715.548,314.809s-.878-1.974-1.446-2.909-3-3.674-3.412-3.054-2.067,4.794-1.188,5.963-.057,3.2,4.313,4.434Z" transform="translate(-709.248 -308.756)"></path></g><g transform="translate(101 47.263)"><path class="x" d="M766.522,298.451s-22.368,18.671-31.089,16.943c-6.82-1.352-17.6-4.771-17.6-4.771s-2.846,2.706-2.041,5.951c0,0,13.736,12.926,23.523,13.009,15.3.131,22.512-7.581,22.512-7.581Z" transform="translate(-715.647 -298.451)"></path></g><g transform="translate(165.373 240.834)"><path class="p" d="M844.818,612.869s-.65,10.475-2.676,10.625c-.269.02-10.278.02-10.278.02l-12.777-.074s.083-3.079,3.819-3.73,9.986-3.275,12.248-8.211C837.533,606.306,844.818,612.869,844.818,612.869Z" transform="translate(-819.087 -609.499)"></path></g><g transform="translate(148.494 115.615)"><path class="f" d="M835.311,537.6a26.636,26.636,0,0,1-6.916,1.3,25.387,25.387,0,0,1-6.457-.922s-.731-7.071-4.756-22.652c-2.11-8.167-5.122-18.667-9.408-31.715-11.851-36.06-15.455-57.156-15.784-59.153-.018-.105-.025-.158-.025-.158l.039-.017,36.435-16s-4.5,49.7,1.243,68.776a80.563,80.563,0,0,1,2.085,9.139C835.395,506.922,835.311,537.6,835.311,537.6Z" transform="translate(-791.965 -408.286)"></path></g><g transform="translate(148.519 115.615)"><path class="f" d="M817.2,515.327c-2.11-8.167-5.122-18.667-9.408-31.715-11.852-36.06-15.455-57.156-15.784-59.153,0-.06.007-.116.014-.176l36.435-16s-4.5,49.7,1.243,68.776C830.5,479.729,817.2,515.327,817.2,515.327Z" transform="translate(-792.005 -408.286)"></path></g><g transform="translate(136.915 240.834)"><path class="p" d="M799.089,612.869s-.65,10.475-2.676,10.625c-.269.02-10.278.02-10.278.02l-12.776-.074s.083-3.079,3.818-3.73,9.986-3.275,12.248-8.211C791.805,606.306,799.089,612.869,799.089,612.869Z" transform="translate(-773.359 -609.499)"></path></g><g transform="translate(141.978 116.787)"><path class="i" d="M781.5,410.168a518.626,518.626,0,0,0,5.1,71.749c5.572,39.543,3.684,56.329,3.684,56.329a38,38,0,0,0,5.373,1.367,24.389,24.389,0,0,0,7.973-.923s7.976-39.558,5.689-59.35,10.922-67.916,10.922-67.916Z" transform="translate(-781.495 -410.168)"></path></g><g transform="translate(152.718 25.5)"><path class="q" d="M813.858,279.4l-7.112,4.664-6.478-1.832c-1.184-1.69-1.5-4.946-1.515-7.767a48.347,48.347,0,0,1,.254-5.173l9.6-4.235,3.581-1.578c-.011.055-.279,2.939-.317,3.361A24.494,24.494,0,0,0,813.858,279.4Z" transform="translate(-798.752 -263.48)"></path></g><g transform="translate(141.678 38.719)"><path class="k" d="M781.159,371.742c8.853,8.548,42.356,7.109,44.421-2.308s-2.252-80.164-17.374-84.608c-3.138-.923-19.914,4.5-19.914,4.5a106.384,106.384,0,0,0-4.359,15.653c-.334,1.706-1.312,19.785-2.044,36.7-.342,7.91-.63,15.568-.778,21.174C780.975,368.106,780.969,371.555,781.159,371.742Z" transform="translate(-781.012 -284.721)"></path></g><g transform="translate(152.718 27.076)"><path class="y" d="M811.148,267.93c-1.947,3.291-8.777,6.172-12.4,7.492a48.346,48.346,0,0,1,.254-5.173l9.6-4.235C810.723,265.987,812.015,266.46,811.148,267.93Z" transform="translate(-798.752 -266.013)"></path></g><g transform="translate(147.42 5.282)"><path class="q" d="M792.172,256.439s15.461,4.822,18.316-4.852,6.773-15.567-2.977-19.056-12.767-.365-14.506,2.632S788.224,254.935,792.172,256.439Z" transform="translate(-790.24 -230.992)"></path></g><g transform="translate(149.341)"><path class="k" d="M794.779,231.025s.986,11.258,3.314,10.77,4.891-1.535,4.55,1.859,2.264,9.21,5.621,9.2c7.2-.029,15.023-18.505,13.052-22.008C815.629,220.734,786.559,218.694,794.779,231.025Z" transform="translate(-793.325 -222.504)"></path></g><g transform="translate(148.957 34.321)"><path class="x" d="M796.821,282.4c.2-.083,11.51-5.157,12.832-4.72s2.971,4.477,2.971,4.477l-19.915,4.5S794.277,283.473,796.821,282.4Z" transform="translate(-792.709 -277.654)"></path></g><g transform="translate(0 7.129)"><g transform="translate(81.312 80.667)"><path class="z" d="M685.355,369.646l63.4,59.692c1.243,1.171,2.81,1.543,3.483.828l2.14-2.273c.672-.714.206-2.256-1.037-3.427l-63.4-59.691c-1.243-1.17-2.81-1.543-3.483-.828l-2.14,2.273C683.645,366.934,684.111,368.476,685.355,369.646Z" transform="translate(-684.01 -363.583)"></path></g><g transform="translate(118.235 115.356)"><path class="aa" d="M743.342,424.2l27.821,26.194c1.243,1.171,2.81,1.543,3.483.828l2.14-2.273c.672-.714.206-2.256-1.037-3.427l-27.821-26.194Z" transform="translate(-743.342 -419.325)"></path></g><path class="z" d="M639.232,249.6A49.685,49.685,0,0,0,569,247.462c-.265.247-.526.5-.78.752a49.695,49.695,0,1,0,71.017,1.387ZM634.4,316.988a45.773,45.773,0,1,1,1.972-64.7A45.718,45.718,0,0,1,634.4,316.988Z" transform="translate(-553.351 -233.96)"></path><g class="ab" transform="translate(3.923 3.924)"><path class="ac" d="M572.089,317.394a45.772,45.772,0,1,0,1.973-64.7A45.578,45.578,0,0,0,572.089,317.394Z" transform="translate(-559.655 -240.265)"></path></g></g><g transform="translate(141.776 58.741)"><path class="x" d="M781.17,375.005c34.934-24.893,32.029-58.11,32.029-58.11-12.768,7.2-25.438,23.124-31.251,36.936C781.606,361.742,781.317,369.4,781.17,375.005Z" transform="translate(-781.17 -316.895)"></path></g><g transform="translate(97.262 43.326)"><g transform="translate(0 59.433)"><path class="q" d="M719.676,390.383a9.528,9.528,0,0,1-4.461-2.756s-1.05.072.172,2.313c.1.188.33.669.5,1.01a.217.217,0,0,1-.182.312c-1.422.108-2.85-.454-5.59.117-.378.078-.488.984-.473,1.37a3.49,3.49,0,0,0,.736,2.385c.441.583,1.673,1.209,4.414,2.313,1.045.42,4.031.1,6.831-.858l2.237-1.036-.694-4.157-.561.118C721.711,391.7,720.606,390.612,719.676,390.383Z" transform="translate(-709.641 -387.627)"></path></g><g transform="translate(12.596)"><path class="k" d="M782.987,292.125s31.388,5.977-9.235,51.431c-6.5,7.27-41.6,16.735-41.6,16.735s-3.56-3.029-1.766-5.481c0,0,24.168-17.551,29.487-20.341,2.392-1.255,9.284-28.012,13.184-34.456A17.581,17.581,0,0,1,782.987,292.125Z" transform="translate(-729.881 -292.125)"></path></g></g><g transform="translate(98.21 52.631)"><path class="q" d="M715.421,314.727a15.959,15.959,0,0,1-1.227-3,16.583,16.583,0,0,0-2.026-4.586c-.213-.212-.916.063-1,.978a5.306,5.306,0,0,0,.5,1.985c.561,1.405.469,3.31.664,3.945C712.823,315.633,715.421,314.727,715.421,314.727Z" transform="translate(-711.164 -307.076)"></path></g></g></g></svg>