<svg width="670" height="473" viewBox="0 0 670 473" fill="none" xmlns="http://www.w3.org/2000/svg">
    <g clip-path="url(#shpb028c2a)">
        <g filter="url(#ujzbzg6jib)">
            <path d="M8.5 103.707h112.077s-25.41-27.662-44.284-15.214C57.419 100.946 55.6 105.321 42.75 96.8 29.901 88.282 8.5 103.707 8.5 103.707z" fill="#0C6BC5"/>
        </g>
        <g filter="url(#rkmlpychrc)">
            <path d="M522.423 77.223h112.081s-25.411-27.663-44.285-15.214c-18.874 12.452-20.692 16.828-33.541 8.306-12.854-8.517-34.255 6.908-34.255 6.908z" fill="#0C6BC5"/>
        </g>
        <path d="M632.823 290.597v99.859l-26.422-26.315-51.691 51.485h-94.835l99.108-98.712-26.423-26.317h100.263z" fill="#1B6FBF"/>
        <path d="M552.019 319.518v75.694l-20.026-19.947-44.698 44.506H415.42l80.633-80.302-20.031-19.951h75.997z" fill="#80ACD6"/>
        <path d="M565.858 123.455V240.4l-30.946-30.822-218.469 217.608H205.397l273.99-272.912-30.943-30.819h117.414z" fill="#ED8B00"/>
        <g filter="url(#7zchup7wvd)">
            <path d="M447.133 158.834v71.132l-18.821-18.744-222.374 221.476h-67.547L394.54 177.585l-18.828-18.751h71.421z" fill="#FFF5D1"/>
        </g>
        <path fill-rule="evenodd" clip-rule="evenodd" d="m271.848 313.234-32.104 76.773h-139.64v-45.595c0-4.949 4.251-9.1 9.851-9.611 21.075-1.951 53.199-10.048 64.509-21.567h97.384zm-162.333 76.773h-9.407v53.458h9.407v-53.458zm117.043 53.458-17.143-53.458h9.41l17.14 53.458h-9.407z" fill="#A5958C"/>
        <path fill-rule="evenodd" clip-rule="evenodd" d="m275.115 390.155 5.386-76.921h-44.255c-10.54 11.575-27.553 19.711-47.258 21.663-5.226.511-9.188 4.672-9.188 9.62v32.451h-79.692v13.039H179.8h-1.968v53.458h9.407v-53.31h78.452l17.647 53.31h9.407l-17.647-53.31h.017z" fill="#C7BEB7"/>
        <path d="M170.804 376.968H114.03l4.032-16.082h42.083s1.07 6.923 7.12 8.123c5.475 1.085 3.539 7.959 3.539 7.959z" fill="#2C2334"/>
        <path d="M273.88 206.582h-80.592v46.3h80.592v-46.3z" fill="#604C64"/>
        <path d="M213.708 197.753 160.04 360.889h-41.981l39.664-163.136h55.985z" fill="#6C5670"/>
        <path d="m165.009 197.753-39.028 163.136h-1.616l39.032-163.136h1.612z" fill="#293820"/>
        <path d="M233.574 297.152h41.981l21.257-60.355c4.902-14.898-6.242-30.215-21.982-30.215-10.678 0-19.969 7.279-22.481 17.618l-18.775 72.952z" fill="#604C64"/>
        <path d="m311.8 80.933-18.92-3.837c-2.761-.56-4.545-3.244-3.982-5.994.562-2.75 3.257-4.526 6.017-3.966l18.92 3.838c2.761.56 4.545 3.244 3.982 5.993-.562 2.75-3.257 4.527-6.017 3.966z" fill="#FCB795"/>
        <path d="M309.433 99.817H293.79V77.643h23.597v14.252c0 4.375-3.561 7.922-7.954 7.922z" fill="#FFA273"/>
        <path d="M310.314 160.222c-4.505 8.651-15.203 12.027-23.889 7.54l-31.58-16.191-2.744-1.404-27.464-14.078c-8.685-4.487-12.075-15.142-7.57-23.793a17.654 17.654 0 0 1 9.202-8.288c3.8-1.5 8.093-1.688 12.141-.323.864.28 1.718.639 2.549 1.071l15.488 7.936 46.3 23.74c8.692 4.48 12.078 15.132 7.567 23.79z" fill="#C4B1D7"/>
        <path d="m248.702 148.423 2.493-10.975 3.647 14.12-6.14-3.145z" fill="#7C6B8D"/>
        <path d="M291.266 97.625s-.646 2.503-1.622 6.485c-2.979 12.103-9.046 37.838-9.454 48.035-.44 11.123 7.034 17.486 16.56 17.862a17.252 17.252 0 0 0 3.956-.29c7.669-1.464 13.604-8.015 13.975-16.112l.003-.092-.914-54.988-22.504-.9z" fill="#FFA273"/>
        <path d="M297.305 105.88c4.961 0 8.983-3.839 8.983-8.575 0-4.736-4.022-8.575-8.983-8.575-4.962 0-8.984 3.84-8.984 8.575 0 4.736 4.022 8.575 8.984 8.575z" fill="#FFB28A"/>
        <path d="M291.266 97.625s-.645 2.503-1.621 6.485a881.162 881.162 0 0 1 7.748 24.855c4.052 13.698 11.37 20.905 17.292 24.64l.003-.092-.913-54.988-22.509-.9z" fill="#FFB28A"/>
        <path d="m253.282 128.239-5.432 23.919-1.814 8.011-8.933 40.046-.328 1.504-1.089 4.862h-80.132l1.102-4.862.351-1.504 7.047-31.01 6.147-26.216 5.666-24.185a20.768 20.768 0 0 1 14.18-15.126.092.092 0 0 1 .047-.023 20.753 20.753 0 0 1 5.796-.887c.092-.013.188-.013.281-.013h36.811a20.724 20.724 0 0 1 15.477 6.857c4.379 4.83 6.461 11.651 4.823 18.627z" fill="#C4B1D7"/>
        <path d="m196.997 163.812-25.117-27.99-2.807 11.974 27.924 16.016z" fill="#7C6B8D"/>
        <path d="m221.323 147.796-17.559-45.038h26.112l-8.553 45.038z" fill="#fff"/>
        <path d="m221.948 111.046-12.806-8.832 5.885-23.236 13.948 2.427-7.027 29.641z" fill="#FFA273"/>
        <path d="M217.385 74.307s2.952-3.831 8.798-3.541c7.394.366 8.381 5.898 8.798 8.064l-7.252.956-10.344-5.48z" fill="#2C2334"/>
        <path d="m233.055 79.997.007.142a9.122 9.122 0 0 1-.126 1.955c-.516 2.977-2.446 5.35-4.978 6.58a9.086 9.086 0 0 1-7.024.396c-4.104-1.447-6.689-5.667-5.908-10.092.86-4.922 5.57-8.222 10.516-7.355a9.04 9.04 0 0 1 6.285 4.355 8.96 8.96 0 0 1 1.228 4.02z" fill="#FFA273"/>
        <path d="M233.569 91.018c.03.508-.04 1.006-.189 1.464-.645 1.985-2.767 3.416-4.925 3.04l-7.05-1.227-.47-5.225-.818-9.159 4.393.027 8.543.056.006.142.51 10.882z" fill="#FFA273"/>
        <path d="m232.812 78.378-6.899.297c-2.849.082-2.846 4.536-6.328 6.231-2.87 1.398-5.396 1.444-6.415 1.391l1.857-7.319c.864-4.925 5.571-8.228 10.516-7.368 3.657.64 6.375 3.148 7.269 6.768z" fill="#2C2334"/>
        <path d="M220.118 74.066s-3.214-.089-4.687 1c-1.473 1.087-2.566 2.304-2.566 2.304l.305 8.927 6.948-12.23z" fill="#2C2334"/>
        <path d="M222.853 84.52a2.979 2.979 0 0 1-3.449 2.413 2.969 2.969 0 0 1-2.423-3.435 2.979 2.979 0 0 1 3.449-2.413 2.974 2.974 0 0 1 2.423 3.435z" fill="#FFA273"/>
        <path d="m231.721 87.682 1.357-.06-.096-2.13-.48.02.073 1.652-.874.04.02.478zM231.76 91.15c.037 0 .073 0 .109-.003l-.023-.481c-.029 0-.056.003-.086.003-1.238 0-2.158-1.137-2.168-1.147l-.377.296c.046.056 1.079 1.332 2.545 1.332z" fill="#2C2334"/>
        <path d="M244.349 83.977c0 .916-.258 1.763-.715 2.495a4.624 4.624 0 0 1-1.158 1.273c-.037.03-.077.063-.113.086v.896h-1.873a4.78 4.78 0 0 1-4.065-2.258 4.71 4.71 0 0 1-.715-2.496c0-2.624 2.142-4.754 4.776-4.754h1.874v.897c.036.026.076.056.112.086a4.73 4.73 0 0 1 1.877 3.775z" fill="#E6CFC5"/>
        <path d="M242.368 88.73c2.636 0 4.773-2.128 4.773-4.754 0-2.625-2.137-4.754-4.773-4.754-2.636 0-4.773 2.129-4.773 4.754 0 2.626 2.137 4.754 4.773 4.754z" fill="#2C2334"/>
        <path d="M259.047 79.23h-16.573v9.497h16.573V79.23z" fill="#2C2334"/>
        <path opacity=".16" d="M253.163 86.469v2.258h-12.671a4.78 4.78 0 0 1-4.064-2.258h16.735z" fill="#2C2334"/>
        <path d="M262.279 83.973a6.975 6.975 0 0 1-1.072 3.742 6.887 6.887 0 0 1-1.738 1.909 2.634 2.634 0 0 1-.169.132v1.348h-2.807a7.168 7.168 0 0 1-6.097-3.385 7.062 7.062 0 0 1-1.069-3.742c0-3.94 3.211-7.128 7.166-7.128h2.807v1.348c.057.037.113.086.169.132a7.063 7.063 0 0 1 2.81 5.644z" fill="#E6CFC5"/>
        <path d="M259.305 91.108c3.954 0 7.16-3.193 7.16-7.132 0-3.938-3.206-7.13-7.16-7.13s-7.159 3.192-7.159 7.13c0 3.939 3.205 7.132 7.159 7.132z" fill="#2C2334"/>
        <path d="M284.325 76.856h-24.858v14.248h24.858V76.856z" fill="#2C2334"/>
        <path opacity=".16" d="M275.499 87.719v3.385H256.49a7.167 7.167 0 0 1-6.097-3.385h25.106z" fill="#2C2334"/>
        <path d="M285.06 84.451c0 2.054-.692 3.94-1.857 5.45a8.673 8.673 0 0 1-1.701 1.708c-.063.056-.136.105-.205.155v1.707h-3.559a9.06 9.06 0 0 1-7.216-3.57 8.987 8.987 0 0 1-1.843-5.45c0-4.981 4.054-9.013 9.056-9.013h3.558v1.707c.073.05.143.1.205.155a8.95 8.95 0 0 1 3.562 7.151z" fill="#E6CFC5"/>
        <path d="M290.354 84.451a8.98 8.98 0 0 1-1.844 5.45 9.007 9.007 0 0 1-7.007 3.564c-.073.006-.136.006-.205.006a9.06 9.06 0 0 1-7.216-3.57 8.98 8.98 0 0 1-1.844-5.45c0-4.981 4.055-9.013 9.056-9.013.073 0 .136 0 .206.006h.03c4.895.119 8.824 4.102 8.824 9.007z" fill="#2C2334"/>
        <path d="M337.36 75.444h-55.856v18.027h55.856V75.444z" fill="#2C2334"/>
        <path d="M341.856 84.451c0-3.01-1.486-5.67-3.763-7.309v-1.71h-3.558c-5.002 0-9.056 4.038-9.056 9.02 0 4.98 4.054 9.02 9.056 9.02h3.558V91.76c2.277-1.638 3.763-4.299 3.763-7.309z" fill="#E6CFC5"/>
        <path opacity=".16" d="M338.091 89.9v3.571H281.5v-.006c-.073.006-.136.006-.205.006h-3.559a9.056 9.056 0 0 1-7.215-3.57h67.57z" fill="#2C2334"/>
        <path d="M346.92 86.553c1.149-4.848-1.865-9.706-6.732-10.851-4.868-1.145-9.746 1.857-10.895 6.705-1.149 4.849 1.865 9.707 6.732 10.852 4.868 1.144 9.746-1.858 10.895-6.706z" fill="#FAE8E1"/>
        <path d="M345.017 84.451c0 3.811-3.102 6.9-6.928 6.9h-.04c-3.803-.023-6.888-3.099-6.888-6.9 0-3.323 2.36-6.099 5.501-6.755a7.278 7.278 0 0 1 1.427-.145c3.83 0 6.928 3.086 6.928 6.9z" fill="#D6C1B7"/>
        <path d="M343.55 84.593c0 3.323-2.36 6.099-5.501 6.755-3.803-.023-6.888-3.099-6.888-6.9 0-3.323 2.36-6.1 5.501-6.755 3.814.023 6.888 3.102 6.888 6.9z" fill="#60959C"/>
        <path d="M338.175 80.06c.616 1.055-.017 2.568-1.417 3.38-1.4.81-3.032.609-3.647-.446-.616-1.055.016-2.568 1.416-3.38 1.4-.81 3.032-.612 3.648.446zM209.01 97.69l12.052 10.287-4.985 7.091-10.589-12.442 3.522-4.935zM224.607 99.867l-3.545 8.11 4.66 6.274 2.85-10.853-3.965-3.531z" fill="#fff"/>
        <path d="m221.065 107.977-4.243 6.037 3.466 4.345-5.018 13.902 6.054 15.535 3.498-17.542-2.724-11.872 3.108-4.833-4.141-5.572z" fill="#2C2334"/>
        <path d="M299.441 104.845c-.331 0-.669-.046-1.003-.148-.354-.106-8.732-2.651-13.313-8.374-1.817-2.268-2.936-4.348-3.624-6.066-.904-2.252.778-4.702 3.21-4.731 1.427-.017 2.738.824 3.271 2.146.447 1.111 1.231 2.591 2.608 4.31 3.184 3.972 9.788 6.026 9.851 6.045a3.48 3.48 0 0 1 2.346 4.336 3.494 3.494 0 0 1-3.346 2.482zM263.924 78.833l8.117 24.476a3.684 3.684 0 0 1-2.715 4.757c-1.539.346-3.071-.379-3.915-1.655a3.92 3.92 0 0 1-.46-.939 1.214 1.214 0 0 0-2.033-.449l-9.308 9.798-.979 1.032-.331.35-16.802-15.828 3.217-3.386 1.04-1.098 1.205-1.27s6.295-6.626 7.232-7.621l3.34-3.512c7.427-8.02 11.79-6.478 12.392-4.655z" fill="#FFB28A"/>
        <path d="M253.372 115.075s-1.384 2.268-3.618 5.839c-6.789 10.863-21.419 33.762-28.648 41.371-7.888 8.305-17.944 7.398-25.054.696a17.378 17.378 0 0 1-2.621-3.102c-4.419-6.66-3.846-15.703 1.857-21.782a1.5 1.5 0 0 1 .066-.07l41.213-38.777 16.805 15.825z" fill="#FFA273"/>
        <path d="M253.374 115.075s-1.383 2.268-3.618 5.839a913.238 913.238 0 0 0-23.888 12.159c-13.008 6.863-23.574 6.676-30.578 5.024a1.1 1.1 0 0 1 .066-.069l41.213-38.777 16.805 15.824z" fill="#FFB28A"/>
        <path d="m237.1 200.212-.327 1.507H156.65l.351-1.507H237.1z" fill="#7C6B8D"/>
        <path d="M286.246 313.23h-56.773l4.031-16.082h42.084s1.069 6.924 7.12 8.124c5.474 1.084 3.538 7.958 3.538 7.958z" fill="#2C2334"/>
        <path d="M227.875 78.896s-1.331-2.219-3.221-2.941l-1.89-.722s1.4-.03 3.158.778c1.757.808 2.664 2.618 2.664 2.618l-.711.267z" fill="#FFA273"/>
        <path d="M226.725 76.614s.632-.715 3.147-.224c2.374.462 2.933 1.988 2.933 1.988l-4.409 1.438c-.049.016-.351-1.5-.351-1.5l-1.32-1.702z" fill="#FFA273"/>
    </g>
    <defs>
        <filter id="ujzbzg6jib" x="-19.5" y="69.273" width="168.077" height="74.434" filterUnits="userSpaceOnUse" color-interpolation-filters="sRGB">
            <feFlood flood-opacity="0" result="BackgroundImageFix"/>
            <feColorMatrix in="SourceAlpha" values="0 0 0 0 0 0 0 0 0 0 0 0 0 0 0 0 0 0 127 0" result="hardAlpha"/>
            <feOffset dy="12"/>
            <feGaussianBlur stdDeviation="14"/>
            <feComposite in2="hardAlpha" operator="out"/>
            <feColorMatrix values="0 0 0 0 0 0 0 0 0 0 0 0 0 0 0 0 0 0 0.15 0"/>
            <feBlend in2="BackgroundImageFix" result="effect1_dropShadow_468_5654"/>
            <feBlend in="SourceGraphic" in2="effect1_dropShadow_468_5654" result="shape"/>
        </filter>
        <filter id="rkmlpychrc" x="494.423" y="42.789" width="168.081" height="74.434" filterUnits="userSpaceOnUse" color-interpolation-filters="sRGB">
            <feFlood flood-opacity="0" result="BackgroundImageFix"/>
            <feColorMatrix in="SourceAlpha" values="0 0 0 0 0 0 0 0 0 0 0 0 0 0 0 0 0 0 127 0" result="hardAlpha"/>
            <feOffset dy="12"/>
            <feGaussianBlur stdDeviation="14"/>
            <feComposite in2="hardAlpha" operator="out"/>
            <feColorMatrix values="0 0 0 0 0 0 0 0 0 0 0 0 0 0 0 0 0 0 0.15 0"/>
            <feBlend in2="BackgroundImageFix" result="effect1_dropShadow_468_5654"/>
            <feBlend in="SourceGraphic" in2="effect1_dropShadow_468_5654" result="shape"/>
        </filter>
        <filter id="7zchup7wvd" x="110.391" y="158.834" width="364.742" height="329.864" filterUnits="userSpaceOnUse" color-interpolation-filters="sRGB">
            <feFlood flood-opacity="0" result="BackgroundImageFix"/>
            <feColorMatrix in="SourceAlpha" values="0 0 0 0 0 0 0 0 0 0 0 0 0 0 0 0 0 0 127 0" result="hardAlpha"/>
            <feOffset dy="28"/>
            <feGaussianBlur stdDeviation="14"/>
            <feComposite in2="hardAlpha" operator="out"/>
            <feColorMatrix values="0 0 0 0 0 0 0 0 0 0 0 0 0 0 0 0 0 0 0.1 0"/>
            <feBlend in2="BackgroundImageFix" result="effect1_dropShadow_468_5654"/>
            <feBlend in="SourceGraphic" in2="effect1_dropShadow_468_5654" result="shape"/>
        </filter>
        <clipPath id="shpb028c2a">
            <path fill="#fff" d="M0 0h670v473H0z"/>
        </clipPath>
    </defs>
</svg>
