<svg width="670" height="524" viewBox="0 0 670 524" fill="none" xmlns="http://www.w3.org/2000/svg">
<g clip-path="url(#clip0_3561_150744)">
<path fill-rule="evenodd" clip-rule="evenodd" d="M85.2046 416.582C85.2046 416.582 104.782 408.707 121.353 424.192C121.353 424.192 103.634 430.478 85.2046 416.582Z" fill="#382F32"/>
<path fill-rule="evenodd" clip-rule="evenodd" d="M140.089 392.349C140.089 392.349 121.078 401.51 121.356 424.191C121.356 424.191 137.937 415.332 140.089 392.349Z" fill="#382F32"/>
<path fill-rule="evenodd" clip-rule="evenodd" d="M81.9141 403.702C81.9141 403.702 100.123 396.377 115.534 410.781C115.534 410.781 99.0547 416.626 81.9141 403.702Z" fill="#382F32"/>
<path fill-rule="evenodd" clip-rule="evenodd" d="M132.962 381.165C132.962 381.165 115.281 389.686 115.536 410.778C115.536 410.781 130.96 402.542 132.962 381.165Z" fill="#382F32"/>
<path fill-rule="evenodd" clip-rule="evenodd" d="M79.9248 390.949C79.9248 390.949 95.9944 384.485 109.592 397.194C109.592 397.194 95.048 402.351 79.9248 390.949Z" fill="#382F32"/>
<path fill-rule="evenodd" clip-rule="evenodd" d="M124.965 371.058C124.965 371.058 109.362 378.578 109.589 397.193C109.593 397.193 123.2 389.922 124.965 371.058Z" fill="#382F32"/>
<path fill-rule="evenodd" clip-rule="evenodd" d="M79.5376 378.853C79.5376 378.853 92.72 373.552 103.875 383.975C103.875 383.975 91.9463 388.209 79.5376 378.853Z" fill="#382F32"/>
<path fill-rule="evenodd" clip-rule="evenodd" d="M116.491 362.538C116.491 362.538 103.693 368.705 103.878 383.976C103.878 383.976 115.043 378.013 116.491 362.538Z" fill="#382F32"/>
<path fill-rule="evenodd" clip-rule="evenodd" d="M98.2779 369.103L128.467 441.838L127.651 442.173L97.4658 369.438L98.2779 369.103Z" fill="#382F32"/>
<path fill-rule="evenodd" clip-rule="evenodd" d="M91.0732 352.735C91.0732 352.735 88.1861 366.649 100.419 375.784C100.419 375.787 102.475 363.296 91.0732 352.735Z" fill="#382F32"/>
<path opacity="0.8" fill-rule="evenodd" clip-rule="evenodd" d="M192.646 341.417C197.375 342.648 200.208 347.479 198.977 352.208C198.408 354.391 197.071 356.169 195.335 357.333C193.257 358.724 192.096 360.859 192.064 363.36C192.051 364.389 191.914 365.438 191.642 366.48C190.804 369.697 188.835 372.322 186.271 374.032C183.742 375.72 182.543 378.604 183.134 381.587C183.684 384.353 183.633 387.282 182.875 390.191C181.814 394.271 179.521 397.705 176.503 400.199C174.527 401.833 173.587 404.157 173.878 406.705C174.163 409.222 174 411.831 173.325 414.43C170.377 425.752 158.812 432.539 147.491 429.592C136.169 426.644 129.385 415.076 132.332 403.754C133.739 398.348 137.112 393.977 141.483 391.205C143.648 389.833 144.869 387.646 144.901 385.085C144.92 383.56 145.125 382.01 145.524 380.468C147.452 373.057 153.435 367.778 160.475 366.391C163.455 365.802 165.661 363.606 166.265 360.629C166.313 360.393 166.368 360.156 166.428 359.919C167.771 354.772 172.008 351.146 176.941 350.34C179.409 349.938 181.35 348.473 182.415 346.206C184.189 342.424 188.458 340.326 192.646 341.417Z" fill="#B4CFFE"/>
<path fill-rule="evenodd" clip-rule="evenodd" d="M141.992 441.873C142.011 441.732 147.664 392.785 189.5 349.814L190.066 350.364C148.418 393.143 142.794 441.828 142.775 441.969L141.992 441.873Z" fill="#382F32"/>
<path fill-rule="evenodd" clip-rule="evenodd" d="M104.21 432.975L116.353 492.863H129.916H138.236H151.795L163.942 432.975H138.236H129.916H104.21Z" fill="#3796F1"/>
<path fill-rule="evenodd" clip-rule="evenodd" d="M138.772 492.863H151.737L163.881 432.975H150.916L138.772 492.863Z" fill="#005EB8"/>
</g>
<g clip-path="url(#clip1_3561_150744)">
<path fill-rule="evenodd" clip-rule="evenodd" d="M238.804 190.204L243.5 177C243.5 177 279.295 161.646 269.924 205.594C262.849 205.594 236.796 200.179 238.804 190.204Z" fill="#382F32"/>
<path fill-rule="evenodd" clip-rule="evenodd" d="M239.694 191.59C239.694 191.59 233.862 204.455 228.738 220.727C216.416 230.502 205 259.5 205 259.5C205 259.5 214.443 257.297 216.5 265C230.238 251.5 233.804 253.225 249 242C261.804 228.225 266.934 204.246 266.934 204.246C266.934 204.246 257.483 183.031 239.694 191.59Z" fill="#FFB096"/>
<path d="M193.185 253.748C200.346 260.649 211.647 260.192 218.427 252.727C225.207 245.263 224.898 233.617 217.737 226.716C210.576 219.815 199.274 220.272 192.495 227.737C185.715 235.201 186.024 246.847 193.185 253.748Z" fill="#F47A46"/>
<path d="M210.258 245.638C211.339 245.419 212.367 244.809 213.1 243.795C214.362 242.064 214.322 239.598 213 237.95C211.613 236.221 209.369 235.813 207.545 236.67C208.253 234.738 207.709 232.45 205.933 231.14C204.249 229.9 201.87 230.018 200.281 231.425C199.153 232.424 198.608 233.816 198.64 235.184C198.641 235.192 198.637 235.206 198.641 235.219L198.118 244.628C198.044 245.97 199.163 247.049 200.458 246.883L209.457 245.718C209.725 245.721 209.991 245.688 210.258 245.638Z" fill="#FFF7FF"/>
<path fill-rule="evenodd" clip-rule="evenodd" d="M247.325 226.428C247.297 226.388 242.599 218.899 232.861 219.155L232.815 218.542C242.915 218.268 247.799 226.057 247.826 226.1L247.325 226.428Z" fill="#E97776"/>
<path fill-rule="evenodd" clip-rule="evenodd" d="M203.94 257.057C198.509 255.396 185.501 255.616 185.501 255.616C185.501 255.616 188.249 262.937 192.386 265.874C197.957 269.828 212.832 270.608 217.628 264.119C222.425 257.63 209.713 258.823 203.94 257.057Z" fill="#FFB096"/>
<path fill-rule="evenodd" clip-rule="evenodd" d="M189.422 248.956L195.252 262.67C195.661 263.633 195.294 264.662 194.354 265.188C193.415 265.713 192.195 265.573 191.371 264.839C187.501 261.41 183.619 256.116 184.816 249.205C184.985 248.239 185.831 247.551 186.926 247.49C188.021 247.43 189.027 248.02 189.422 248.956Z" fill="#FFB096"/>
<path fill-rule="evenodd" clip-rule="evenodd" d="M194.929 246.395L201.506 261.206C201.967 262.247 201.648 263.325 200.725 263.845C199.802 264.366 198.562 264.166 197.693 263.353C193.611 259.551 189.425 253.768 190.288 246.472C190.41 245.452 191.231 244.755 192.335 244.736C193.438 244.716 194.483 245.384 194.929 246.395Z" fill="#FFB096"/>
<path fill-rule="evenodd" clip-rule="evenodd" d="M201.723 250.668L208.439 265.029C208.91 266.037 208.588 267.121 207.649 267.681C206.711 268.242 205.449 268.104 204.564 267.341C200.403 263.77 196.134 258.24 197.001 250.968C197.123 249.952 197.957 249.221 199.08 249.149C200.202 249.076 201.267 249.687 201.723 250.668Z" fill="#FFB096"/>
<path fill-rule="evenodd" clip-rule="evenodd" d="M209.179 253.805L210.955 258.503L213.41 265.152C213.576 266.03 213.109 266.808 212.268 267.056C211.428 267.305 210.475 266.947 209.939 266.177C205.252 256.998 206.019 257.85 205.45 253.099C205.748 252.333 206.541 251.932 207.428 252.099C208.314 252.266 209.02 252.953 209.179 253.805Z" fill="#FFB096"/>
<path fill-rule="evenodd" clip-rule="evenodd" d="M190.581 251.073C190.582 251.109 191.528 257.851 196.7 261.68L196.489 262.078C191.086 258.107 190.141 251.102 190.142 251.063L190.581 251.073Z" fill="#E97776"/>
<path fill-rule="evenodd" clip-rule="evenodd" d="M197.163 250.859C197.164 250.895 198.111 257.636 203.282 261.466L203.071 261.864C197.668 257.893 196.724 250.888 196.724 250.849L197.163 250.859Z" fill="#E97776"/>
<path fill-rule="evenodd" clip-rule="evenodd" d="M303.882 280.826C303.882 280.826 350.212 276.659 370.493 286.989C360.265 300.316 275.155 295.74 262.558 286.731C262.558 286.733 285.386 274.785 303.882 280.826Z" fill="#382F32"/>
<path fill-rule="evenodd" clip-rule="evenodd" d="M239.455 192.46C264.302 196.535 267 204.5 267 204.5L271.133 194.081C271.133 194.081 268.743 190.107 264.302 186.715C246.553 178.626 243.367 176.349 239.455 192.46Z" fill="#E97776"/>
<path fill-rule="evenodd" clip-rule="evenodd" d="M298.173 120.481C298.173 120.481 298.173 127.444 298.173 131.713C298.173 137.776 292.102 143.453 292.102 143.453L310.573 154.526L332.014 143.453C332.014 143.453 325.651 137.5 324.135 132.914C322.412 127.701 322.076 120.481 322.076 120.481L298.173 120.481Z" fill="#FFB096"/>
<path fill-rule="evenodd" clip-rule="evenodd" d="M296.724 113.965C296.724 113.965 298.9 124.911 297.96 133.519C298.777 134.06 300.773 135.892 301.988 136.576C303.607 137.486 312.624 138.436 316.57 136.576C320.515 134.715 322.523 128.362 322.78 127.542L320.696 108.784L296.724 113.965Z" fill="#E97776"/>
<path fill-rule="evenodd" clip-rule="evenodd" d="M285.289 161.898L279.069 216.443C279.069 216.443 265.309 191.487 238.95 191.487C246.178 139.609 294.738 136.893 294.738 136.893L310.214 149.387L285.289 161.898Z" fill="white"/>
<path fill-rule="evenodd" clip-rule="evenodd" d="M274.526 338.727L250.435 477.876L268.345 473.662L305.271 337.125C307.446 327.416 293.705 312.921 274.526 338.727Z" fill="#FFB096"/>
<path fill-rule="evenodd" clip-rule="evenodd" d="M361.493 339.788L378.752 472.45L361.493 473.647L327.307 342.982C327.31 342.982 344.9 317.436 361.493 339.788Z" fill="#FFB096"/>
<path fill-rule="evenodd" clip-rule="evenodd" d="M269.498 285.8L264.5 300.5L246.5 460C246.5 460 256 464 264.5 464.5C273 465 275.5 463.5 275.5 463.5L318 313.5C318 313.5 320.535 285.8 327.924 285.8C335.313 285.8 295.837 250.607 269.498 285.8Z" fill="#F96464"/>
<path opacity="0.5" fill-rule="evenodd" clip-rule="evenodd" d="M258 381.5L248.5 460.5C248.5 460.5 255.5 462.625 262.5 463.5C269.5 464.375 275 463 275 463L301 372.5C267.62 410.888 258 381.5 258 381.5Z" fill="#C45C5C"/>
<path fill-rule="evenodd" clip-rule="evenodd" d="M359.382 273.636L368 303.439L384.5 462.5C384.5 462.5 373.435 467.043 366 467C356 466.943 350 463.5 350 463.5L315.683 303.439C315.683 303.439 335.416 240.928 359.382 273.636Z" fill="#F96464"/>
<path fill-rule="evenodd" clip-rule="evenodd" d="M269.391 273.61L268.309 289.655C283.816 294.771 321.702 305.188 365 292.5L359.139 272.353L269.391 273.61Z" fill="#C45C5C"/>
<path fill-rule="evenodd" clip-rule="evenodd" d="M350.5 463.5C350.5 463.5 355.5 465.5 364 466.5C372.5 467.5 384.5 462 384.5 462L372.287 367.147C372.287 367.147 379.719 424.32 350.5 463.5Z" fill="#C45C5C"/>
<path fill-rule="evenodd" clip-rule="evenodd" d="M281.417 145.049L294.576 137.059C294.576 137.059 312.872 155.026 327.474 136.143L349.158 148.225C349.158 148.225 360.661 167.829 365.517 181.464C351.899 220.802 365.517 236.883 370.633 286.949C345.855 282.967 315.554 300.911 262.115 286.949L269.047 203.092L281.417 145.049Z" fill="white"/>
<path fill-rule="evenodd" clip-rule="evenodd" d="M361.655 195.353L350.877 190.123L351.083 189.544L361.734 194.629L361.655 195.353Z" fill="#D0AA9E"/>
<path fill-rule="evenodd" clip-rule="evenodd" d="M269.156 203.923C269.165 203.875 266.515 181.355 273.421 171.316L273.216 170.737C265.971 180.905 268.572 203.775 268.565 203.825L269.156 203.923Z" fill="#D0AA9E"/>
<path fill-rule="evenodd" clip-rule="evenodd" d="M356.141 492.863C358.046 484.385 361.469 473.621 361.469 473.621C361.469 473.621 369.949 461.387 378.121 471.554C378.121 471.554 382.881 482.522 387.478 492.73C384.33 500.114 354.714 499.214 356.141 492.863Z" fill="white"/>
<path fill-rule="evenodd" clip-rule="evenodd" d="M359.097 489.43C359.127 489.399 370.011 478.539 382.822 486.841L382.366 487.452C370.087 479.493 359.663 489.898 359.633 489.926L359.097 489.43Z" fill="#382F32"/>
<path fill-rule="evenodd" clip-rule="evenodd" d="M367.988 479.426C367.979 479.399 364.867 469.806 366.449 468.396C366.649 468.22 366.908 468.06 367.21 467.922C368.192 467.476 369.714 467.208 371.098 467.167C372.53 467.126 373.85 467.339 374.357 467.859C374.438 467.945 374.504 468.035 374.546 468.13C375.147 469.44 373.407 479.115 373.401 479.142L372.645 479.049C372.651 479.022 374.359 469.592 373.837 468.451L373.782 468.37C373.425 468.005 372.322 467.86 371.082 467.898C369.796 467.935 368.394 468.179 367.508 468.581C367.278 468.684 367.086 468.798 366.953 468.915C365.744 469.992 368.712 479.152 368.719 479.18L367.988 479.426Z" fill="#382F32"/>
<path fill-rule="evenodd" clip-rule="evenodd" d="M365.144 478.255C365.161 478.247 371.192 474.821 375.736 477.608L375.296 478.228C371.143 475.682 365.519 478.872 365.502 478.884L365.144 478.255Z" fill="#382F32"/>
<path fill-rule="evenodd" clip-rule="evenodd" d="M365.074 475.561C365.091 475.552 371.122 472.127 375.666 474.914L375.226 475.534C371.073 472.988 365.449 476.181 365.432 476.189L365.074 475.561Z" fill="#382F32"/>
<path fill-rule="evenodd" clip-rule="evenodd" d="M365.175 472.67C365.192 472.661 371.223 469.235 375.767 472.023L375.327 472.643C371.175 470.097 365.55 473.29 365.536 473.298L365.175 472.67Z" fill="#382F32"/>
<path fill-rule="evenodd" clip-rule="evenodd" d="M252.5 492.5C258.152 490.391 274 480.5 274 480.5C274 480.5 272.5 470.861 270 468.5C258 474.5 252.953 458.71 247.812 470.861C244.797 474.343 241.025 473.906 233.585 478.436C228.139 481.752 225.5 487.676 225.5 491.5C225.5 498.189 231.459 497 237.5 497C240.818 497 246.466 494.751 252.5 492.5Z" fill="white"/>
<path fill-rule="evenodd" clip-rule="evenodd" d="M250.374 484.538C249.643 483.692 242.6 473.454 232.572 479.032L230.809 480.09C242.565 475.074 248.868 484.002 249.839 485.035L250.374 484.538Z" fill="#382F32"/>
<path fill-rule="evenodd" clip-rule="evenodd" d="M253.843 477.762C253.864 477.738 261.198 469.052 260.146 466.907C260.013 466.638 259.81 466.36 259.554 466.088C258.719 465.205 257.245 464.276 255.819 463.644C254.341 462.992 252.873 462.651 252.122 462.979C252.001 463.033 251.893 463.1 251.809 463.181C250.625 464.292 248.32 475.13 248.315 475.161L249.144 475.385C249.149 475.355 251.383 464.786 252.412 463.818L252.505 463.757C253.033 463.528 254.246 463.846 255.524 464.414C256.85 465.001 258.209 465.852 258.963 466.648C259.159 466.854 259.31 467.055 259.399 467.233C260.202 468.873 253.204 477.168 253.185 477.194L253.843 477.762Z" fill="#382F32"/>
<path fill-rule="evenodd" clip-rule="evenodd" d="M257.31 477.752C257.296 477.735 252.46 471.592 246.531 472.566L246.726 473.4C252.144 472.511 256.656 478.236 256.669 478.255L257.31 477.752Z" fill="#382F32"/>
<path fill-rule="evenodd" clip-rule="evenodd" d="M258.53 474.97C258.516 474.953 253.68 468.81 247.752 469.784L247.947 470.618C253.365 469.729 257.875 475.457 257.889 475.473L258.53 474.97Z" fill="#382F32"/>
<path fill-rule="evenodd" clip-rule="evenodd" d="M259.656 471.909C259.641 471.893 254.806 465.749 248.877 466.723L249.072 467.557C254.49 466.669 259 472.396 259.012 472.411L259.656 471.909Z" fill="#382F32"/>
<path fill-rule="evenodd" clip-rule="evenodd" d="M379.765 164.115L392.624 158.733C392.624 158.733 407.316 157.442 380.274 199.974C380.277 199.975 362.013 178.693 379.765 164.115Z" fill="#382F32"/>
<path fill-rule="evenodd" clip-rule="evenodd" d="M370.001 192.269C370.001 192.269 427.298 231.29 444.357 154.549L442.999 139.172L412.016 168.705L381.13 157.42C381.263 152.404 362.486 168.357 370.001 192.269Z" fill="#FFB096"/>
<path fill-rule="evenodd" clip-rule="evenodd" d="M382.312 198.421C379.2 165.516 391.365 161.147 391.365 161.147L375.866 155.643C375.866 155.643 372.98 164.288 369.249 168.683C359.914 186.673 366.133 193.074 382.312 198.421Z" fill="#E97776"/>
<path fill-rule="evenodd" clip-rule="evenodd" d="M447.497 127.457L436.726 112.154C435.97 111.078 436.005 109.775 436.814 108.955C437.62 108.138 438.949 108.067 440.063 108.781C445.289 112.133 451.157 117.72 452.245 126.246C452.394 127.44 451.741 128.433 450.614 128.722C449.486 129.012 448.23 128.505 447.497 127.457Z" fill="#FFB096"/>
<path fill-rule="evenodd" clip-rule="evenodd" d="M441.658 132.729L433.663 120.508C433.1 119.65 433.165 118.63 433.816 118.018C434.468 117.4 435.504 117.381 436.355 117.968C440.343 120.72 444.774 125.232 445.396 131.913C445.483 132.849 444.944 133.605 444.057 133.799C443.167 133.994 442.2 133.562 441.658 132.729Z" fill="#FFB096"/>
<path fill-rule="evenodd" clip-rule="evenodd" d="M443.935 153.536L449.854 142.067C449.854 142.067 454.936 129.666 451.544 122.915C448.152 116.163 443.134 121.263 443.134 121.263C443.134 121.263 444.469 127.824 438.062 133.579C425.863 143.872 443.935 153.536 443.935 153.536Z" fill="#FFB096"/>
<path fill-rule="evenodd" clip-rule="evenodd" d="M447.632 129.972L447.389 111.26C447.37 109.946 448.138 108.888 449.267 108.67C450.397 108.453 451.531 109.145 452.047 110.363C454.468 116.08 456.154 124.006 452.236 131.653C451.689 132.724 450.586 133.175 449.491 132.775C448.397 132.376 447.649 131.249 447.632 129.972Z" fill="#FFB096"/>
<path d="M392.649 158.733C380.205 155.139 364.11 136.674 327.765 136.674L361.777 194.774C363 193 374 201 380.205 199.827C377.316 189.988 376.934 165.037 392.649 158.733Z" fill="white"/>
<path fill-rule="evenodd" clip-rule="evenodd" d="M293.782 107.682C293.156 106.044 293.99 103.219 290.98 104.185C289.26 104.734 292.225 114.392 294.014 113.795C297.936 112.487 294.48 109.507 293.782 107.682Z" fill="#E97776"/>
<path fill-rule="evenodd" clip-rule="evenodd" d="M321.053 102.518C320.996 100.765 319.135 98.4867 322.282 98.2033C324.079 98.0387 325.083 108.095 323.203 108.242C319.083 108.565 321.115 104.472 321.053 102.518Z" fill="#E97776"/>
<path fill-rule="evenodd" clip-rule="evenodd" d="M289.343 88.8667C289.343 88.8667 293.152 109.992 296.532 121.061C297.133 123.031 298.127 124.861 299.791 126.075C303.05 128.452 308.643 131.398 310.883 131.464C313.879 131.552 316.951 130.334 319.095 129.383C321.036 128.521 322.918 124.477 324.34 118.812C324.644 117.604 324.698 116.356 324.528 115.123C323.244 105.84 319.506 84.1875 319.506 84.1875L289.343 88.8667Z" fill="#FFB096"/>
<path d="M297.386 107.326C297.386 107.326 299.607 106.36 301.892 106.102C304.299 105.831 305.716 105.521 305.454 104.667C303.645 101.334 296.846 104.284 297.386 107.326Z" fill="white"/>
<path fill-rule="evenodd" clip-rule="evenodd" d="M303.428 102.586C302.695 101.98 301.609 102.081 301 102.814C300.393 103.547 300.494 104.633 301.228 105.242C301.963 105.847 303.046 105.748 303.654 105.011C304.263 104.278 304.162 103.192 303.428 102.586Z" fill="#382F32"/>
<path fill-rule="evenodd" clip-rule="evenodd" d="M303.045 102.307C302.822 102.123 302.491 102.152 302.305 102.377C302.122 102.599 302.151 102.93 302.375 103.116C302.6 103.302 302.929 103.27 303.115 103.046C303.301 102.822 303.269 102.492 303.045 102.307Z" fill="white"/>
<path d="M311.643 103.165C311.643 103.165 314.053 102.666 316.268 102.858C319.074 103.101 320.132 103.283 319.712 102.396C318.047 98.8735 313.1 100.14 311.643 103.165Z" fill="white"/>
<path fill-rule="evenodd" clip-rule="evenodd" d="M317.628 102.413C318.401 101.933 318.638 100.916 318.154 100.141C317.674 99.3682 316.657 99.1306 315.882 99.6145C315.11 100.095 314.872 101.112 315.356 101.887C315.836 102.657 316.852 102.894 317.628 102.413Z" fill="#382F32"/>
<path fill-rule="evenodd" clip-rule="evenodd" d="M317.943 100.513C318.177 100.366 318.251 100.057 318.104 99.8202C317.957 99.5862 317.648 99.5124 317.411 99.6595C317.175 99.8065 317.104 100.115 317.251 100.352C317.398 100.589 317.709 100.659 317.943 100.513Z" fill="white"/>
<path fill-rule="evenodd" clip-rule="evenodd" d="M308.593 112.673C308.593 112.673 310.128 111.757 311.59 111.133L311.695 111.09L309.101 102.584C309.101 102.584 315.749 110.101 313.886 111.827C312.705 113.132 308.593 112.673 308.593 112.673Z" fill="#E97776"/>
<path fill-rule="evenodd" clip-rule="evenodd" d="M316.149 116.34C314.802 118.436 312.521 120.221 308.991 119.578C307.69 119.341 305.988 118.226 305.656 117.139C308.355 118.132 313.944 117.801 316.149 116.34Z" fill="white"/>
<path fill-rule="evenodd" clip-rule="evenodd" d="M295.824 101.272C295.824 101.272 297.174 99.4899 299.396 98.4723C300.976 97.7468 302.7 98.0402 304.139 97.9888C304.793 97.9654 305.129 99.2922 304.485 99.7306C304.352 99.821 301.477 99.827 299.815 100.529C298.727 100.988 296.798 102.585 296.317 102.478C295.437 102.439 295.824 101.272 295.824 101.272Z" fill="#382F32"/>
<path fill-rule="evenodd" clip-rule="evenodd" d="M319.625 95.4085C318.768 95.0167 317.853 94.7303 315.42 94.9601C313.689 95.1218 312.055 96.0483 310.783 96.7234C310.205 97.0302 310.479 98.2438 311.256 98.3016C311.809 98.3428 314.531 97.1781 315.703 97.0318C316.875 96.8855 318.637 97.0415 319.704 96.5963C320.298 96.3483 320.049 95.602 319.625 95.4085Z" fill="#382F32"/>
<path d="M300.267 75.8836C305.086 75.0901 314.885 73.1821 317.536 76.6964C320.217 79.9187 321.916 91.8911 321.809 98.1975C321.118 98.2801 320.908 92.652 320.192 90.4601C319.207 87.443 318.725 85.5773 316.014 85.0317C313.303 84.4862 306.375 86.846 304.873 87.1109C302.936 87.4528 296.241 88.4717 294.424 90.6387C292.608 92.8057 292.83 96.2608 293.253 98.8669C293.874 102.703 292.994 104.796 293.122 107.834C291.487 103.268 290.535 97.9419 290.062 95.1607C287.982 92.7886 286.121 83.4718 291.857 79.7698C291.865 79.7525 291.873 79.7352 291.881 79.718C292.629 78.2008 296.062 75.8837 300.267 75.8836Z" fill="#382F32"/>
<path fill-rule="evenodd" clip-rule="evenodd" d="M427.557 204.181C427.523 204.222 415.487 217.674 401.404 213.889L401.469 212.941C415.327 216.664 427.184 203.411 427.216 203.375L427.557 204.181Z" fill="white"/>
<path fill-rule="evenodd" clip-rule="evenodd" d="M420.7 214.191C420.686 214.203 415.756 218.528 409.141 218.129L409.135 217.171C415.6 217.563 420.404 213.348 420.416 213.337L420.7 214.191Z" fill="white"/>
</g>
<rect x="223.432" y="76.0977" width="41.7717" height="41.5795" rx="10" transform="rotate(30 223.432 76.0977)" fill="white"/>
<path d="M239.378 105.503L237.013 104.124C241.029 102.82 244.147 98.7703 244.235 96.2563C244.34 93.3506 240.178 92.3303 239.152 95.2544C237.045 101.281 228.662 99.2917 228.168 99.2525C226.507 99.1455 225.158 100.129 224.453 101.173L220.339 98.774C219.689 98.3949 218.852 98.6152 218.473 99.2652L214.962 105.286C214.583 105.936 214.803 106.773 215.453 107.152L219.567 109.551C218.396 111.788 219.375 113.508 221.203 114.574L231.067 120.327C232.738 121.302 234.88 120.732 235.85 119.068L240.737 110.69C241.798 108.887 241.192 106.561 239.378 105.503Z" fill="#1345A7"/>
<path d="M380.083 37.1153C380.772 35.2505 382.503 34.0084 384.479 34.2317C388.03 34.633 394.536 35.8446 404.26 39.438C413.984 43.0315 419.715 46.3418 422.673 48.3463C424.319 49.4613 424.827 51.5306 424.138 53.3954L415.946 75.562C415.195 77.5944 413.223 78.8959 411.076 78.6037C407.109 78.0637 400.154 76.7509 391.635 73.6027C383.116 70.4546 376.979 66.9294 373.614 64.7597C371.792 63.5856 371.141 61.3143 371.892 59.2819L380.083 37.1153Z" fill="#F96464"/>
<path fill-rule="evenodd" clip-rule="evenodd" d="M388.422 63.6575L394.768 45.423L407.943 59.6494L388.422 63.6575Z" fill="white"/>
<path fill-rule="evenodd" clip-rule="evenodd" d="M495.974 341.758H488.759L501.576 493.773H508.791L495.974 341.758Z" fill="#382F32"/>
<path fill-rule="evenodd" clip-rule="evenodd" d="M604.29 343.167H597.075L609.893 493.257H617.108L604.29 343.167Z" fill="#382F32"/>
<path fill-rule="evenodd" clip-rule="evenodd" d="M455.12 350.871H634.908L634.005 341.834H454.217L455.12 350.871Z" fill="#382F32"/>
<path fill-rule="evenodd" clip-rule="evenodd" d="M554.609 343.802H561.824L545.939 492.87H538.724L554.609 343.802Z" fill="#C7A391"/>
<path fill-rule="evenodd" clip-rule="evenodd" d="M447.331 342.144H454.546L437.639 493.256H430.424L447.331 342.144Z" fill="#C7A391"/>
<path opacity="0.5" fill-rule="evenodd" clip-rule="evenodd" d="M554.645 344.188H562.028L560.268 361.058H552.6L554.645 344.188Z" fill="#382F32"/>
<path opacity="0.5" fill-rule="evenodd" clip-rule="evenodd" d="M447.001 345.292H454.314L452.606 359.826H445.258L447.001 345.292Z" fill="#382F32"/>
<path fill-rule="evenodd" clip-rule="evenodd" d="M574.963 350.871H414.312L415.117 341.834H575.769L574.963 350.871Z" fill="#C7A391"/>
<path d="M478.997 342.457C490.05 345.631 501.583 339.244 504.757 328.192C507.931 317.139 501.544 305.606 490.492 302.432C479.439 299.258 467.906 305.645 464.732 316.697C461.558 327.75 467.945 339.283 478.997 342.457Z" fill="#F6D8CB"/>
<path d="M492.556 325.357C493.568 324.571 494.321 323.419 494.557 322.016C494.969 319.616 493.644 317.16 491.409 316.198C489.063 315.19 486.513 315.957 485.06 317.774C484.792 315.463 483.033 313.451 480.501 313.066C478.101 312.704 475.685 314.07 474.763 316.317C474.109 317.912 474.266 319.595 475.012 320.952C475.017 320.961 475.019 320.976 475.031 320.987L479.387 330.711C480.007 332.097 481.736 332.594 482.998 331.748L491.764 325.858C492.044 325.72 492.305 325.547 492.556 325.357Z" fill="#005EB8"/>
<path fill-rule="evenodd" clip-rule="evenodd" d="M548.963 331.928C540.496 343.252 524.445 345.568 513.12 337.097C502.381 329.067 499.746 314.229 506.717 303.059L528.455 316.592L532.271 291.27C536.319 291.876 540.281 293.464 543.79 296.087C555.117 304.555 557.43 320.605 548.963 331.928Z" fill="#F9CF64"/>
<path fill-rule="evenodd" clip-rule="evenodd" d="M504.956 298.548C505.338 297.939 505.749 297.334 506.189 296.749C512.046 288.941 521.506 285.431 530.528 286.797L526.675 312.116L504.956 298.548Z" fill="#EDAB00"/>
<path d="M470.366 337.545C466.92 336.412 466.083 332.395 469.124 330.416C472.297 328.351 476.883 325.749 483.281 322.898C495.659 317.383 502.815 316.287 505.107 316.069C505.648 316.018 506.186 316.102 506.702 316.272L520.382 320.768C524.031 321.968 524.856 326.472 521.629 328.557C518.316 330.697 513.855 333.257 508.329 335.719C497.777 340.421 489.558 341.995 486.734 342.432C486.035 342.54 485.329 342.463 484.656 342.242L470.366 337.545Z" fill="#F96464"/>
<path d="M468.957 340.485C475.957 336.469 478.377 327.538 474.36 320.537C470.344 313.537 461.413 311.118 454.413 315.134C447.413 319.15 444.993 328.081 449.01 335.081C453.026 342.082 461.957 344.501 468.957 340.485Z" fill="#F47A46"/>
<path d="M466.97 325.298C467.068 324.404 466.856 323.461 466.264 322.657C465.257 321.276 463.372 320.744 461.795 321.4C460.141 322.088 459.281 323.748 459.486 325.368C458.191 324.373 456.318 324.276 454.887 325.363C453.532 326.395 453.039 328.28 453.72 329.842C454.204 330.952 455.129 331.695 456.177 331.983C456.183 331.984 456.192 331.991 456.203 331.99L463.23 334.548C464.232 334.913 465.327 334.285 465.517 333.236L466.835 325.941C466.902 325.733 466.943 325.517 466.97 325.298Z" fill="#FFF7FF"/>
<path fill-rule="evenodd" clip-rule="evenodd" d="M496.358 332.41L485.925 327.195L503.255 324.671L496.358 332.41Z" fill="white"/>
<path fill-rule="evenodd" clip-rule="evenodd" d="M544.488 303.029L547.881 341.758H558.432H568.983L572.375 303.029H544.488Z" fill="white"/>
<path fill-rule="evenodd" clip-rule="evenodd" d="M565.123 311.75H577.18C577.343 311.75 577.512 311.76 577.688 311.779C578.756 311.9 579.677 312.399 580.329 313.131C580.984 313.873 581.371 314.845 581.371 315.919C581.371 316.079 581.362 316.252 581.339 316.434L580.329 325.367C580.003 328.261 578.529 330.886 576.419 332.779C574.305 334.678 571.546 335.858 568.652 335.858H562.622C562.459 335.858 562.29 335.848 562.114 335.829C561.046 335.707 560.125 335.212 559.473 334.476C558.818 333.735 558.431 332.763 558.431 331.688C558.431 331.529 558.44 331.356 558.463 331.174L560.157 316.21C560.298 314.976 560.921 313.857 561.813 313.055C562.709 312.252 563.885 311.75 565.123 311.75ZM577.18 313.787H565.123C564.406 313.787 563.709 314.087 563.175 314.567C562.638 315.053 562.258 315.715 562.178 316.434L560.483 331.404L560.467 331.692C560.467 332.254 560.662 332.76 560.992 333.13C561.324 333.501 561.794 333.754 562.344 333.815L562.626 333.827H568.656C571.031 333.827 573.311 332.849 575.063 331.273C576.821 329.693 578.046 327.526 578.315 325.15L579.325 316.21L579.341 315.923C579.341 315.36 579.146 314.855 578.817 314.484C578.484 314.113 578.011 313.86 577.464 313.8L577.18 313.787Z" fill="white"/>
<path d="M561.924 318.054C561.924 316.996 561.208 316.227 559.452 315.398C557.957 314.692 556.497 313.843 556.497 311.923C556.497 311.047 556.75 309.844 557.945 309H554V321H557.148C560.228 321 561.924 319.993 561.924 318.054Z" fill="#005EB8"/>
<path d="M562.876 317.799C562.853 317.511 562.794 317.246 562.704 317H565.383V317.799H562.876Z" fill="#005EB8"/>
<path d="M561.441 315.4C561.752 315.635 562.032 315.899 562.261 316.2H565.382V315.4H561.441Z" fill="#005EB8"/>
<path d="M562.849 318.6H565.383V319.399H562.642C562.75 319.12 562.813 318.847 562.849 318.6Z" fill="#005EB8"/>
<path d="M565.383 309.8V309H562.117C560.861 309 559.463 309.16 558.529 309.8H565.383Z" fill="#005EB8"/>
<path d="M561.358 321C561.713 320.755 561.987 320.482 562.199 320.199H565.383V321H561.358Z" fill="#005EB8"/>
<path d="M557.778 310.6C557.647 310.833 557.552 311.099 557.502 311.4H565.383V310.6H557.778Z" fill="#005EB8"/>
<path d="M559.845 314.474C559.346 314.238 558.939 314.018 558.612 313.8H565.383V314.6H560.106C560.03 314.562 559.952 314.525 559.876 314.488L559.845 314.474Z" fill="#005EB8"/>
<path d="M557.474 312.2C557.507 312.493 557.597 312.754 557.759 313H565.383V312.2H557.474Z" fill="#005EB8"/>
<defs>
<clipPath id="clip0_3561_150744">
<rect width="119.727" height="151.734" fill="white" transform="translate(79.5376 341.129)"/>
</clipPath>
<clipPath id="clip1_3561_150744">
<rect width="284.721" height="425.972" fill="white" transform="translate(178.714 71.9785)"/>
</clipPath>
</defs>
</svg>
